# xmcd
#
# Track frame offsets: 
#        150
#        12556
#        31969
#        54607
#        69613
#        82324
#        107290
#        119545
#        139786
#        157984
#        174517
#
# Disc length: 2558 seconds
#
# Revision: 0
# Processed by: cddbd v1.5.2PL0 Copyright (c) Steve Scherf et al.
# Submitted via: ExactAudioCopy v1.3
#
DISCID=9309fc0b
DTITLE=Frank Bey - Back In Business
DYEAR=2018
DGENRE=Blues
TTITLE0=Back In Business Now
TTITLE1=Gun Totin' Preacher
TTITLE2=Take It Back To Georgia
TTITLE3=Cookie Jar
TTITLE4=The Half Of It
TTITLE5=Where You Been So Long
TTITLE6=Better Look Out
TTITLE7=Ain't No Reason
TTITLE8=Blame Mother Nature
TTITLE9=Give It To Get It
TTITLE10=Yesterday's Dreams
EXTD=
EXTT0=
EXTT1=
EXTT2=
EXTT3=
EXTT4=
EXTT5=
EXTT6=
EXTT7=
EXTT8=
EXTT9=
EXTT10=
PLAYORDER=
